<svg preserveAspectRatio="xMidYMid meet" width="22" height="22" viewBox="0 0 21.9907 21.9907" fill="none" xmlns="http://www.w3.org/2000/svg">
  <g clip-path="url(#clip_ai_fab_icon)">
    <path d="M9.10507 14.2023C9.02326 13.8852 8.85798 13.5958 8.62642 13.3643C8.39485 13.1327 8.10547 12.9674 7.78837 12.8856L2.167 11.4361C2.07109 11.4089 1.98668 11.3511 1.92658 11.2716C1.86648 11.192 1.83396 11.095 1.83396 10.9953C1.83396 10.8957 1.86648 10.7987 1.92658 10.7191C1.98668 10.6396 2.07109 10.5818 2.167 10.5546L7.78837 9.10415C8.10536 9.02242 8.39467 8.85728 8.62622 8.62589C8.85777 8.3945 9.02312 8.1053 9.10507 7.78837L10.5546 2.167C10.5816 2.07072 10.6393 1.98589 10.7189 1.92546C10.7986 1.86504 10.8958 1.83233 10.9958 1.83233C11.0958 1.83233 11.193 1.86504 11.2727 1.92546C11.3523 1.98589 11.4101 2.07072 11.437 2.167L12.8856 7.78837C12.9674 8.10547 13.1327 8.39486 13.3643 8.62642C13.5958 8.85798 13.8852 9.02326 14.2023 9.10507L19.8237 10.5537C19.9204 10.5804 20.0056 10.638 20.0664 10.7178C20.1271 10.7976 20.16 10.8951 20.16 10.9953C20.16 11.0956 20.1271 11.1931 20.0664 11.2729C20.0056 11.3527 19.9204 11.4103 19.8237 11.437L14.2023 12.8856C13.8852 12.9674 13.5958 13.1327 13.3643 13.3643C13.1327 13.5958 12.9674 13.8852 12.8856 14.2023L11.4361 19.8237C11.4091 19.92 11.3514 20.0048 11.2718 20.0652C11.1921 20.1257 11.0949 20.1584 10.9949 20.1584C10.8949 20.1584 10.7977 20.1257 10.718 20.0652C10.6384 20.0048 10.5806 19.92 10.5537 19.8237L9.10507 14.2023Z" stroke="#FFFFFF" stroke-width="1.83256" stroke-linecap="round" stroke-linejoin="round"/>
    <path d="M18.3256 2.74884V6.41395" stroke="#FFFFFF" stroke-width="1.83256" stroke-linecap="round" stroke-linejoin="round"/>
    <path d="M20.1581 4.5814H16.493" stroke="#FFFFFF" stroke-width="1.83256" stroke-linecap="round" stroke-linejoin="round"/>
    <path d="M3.66512 15.5767V17.4093" stroke="#FFFFFF" stroke-width="1.83256" stroke-linecap="round" stroke-linejoin="round"/>
    <path d="M4.5814 16.493H2.74884" stroke="#FFFFFF" stroke-width="1.83256" stroke-linecap="round" stroke-linejoin="round"/>
  </g>
  <defs>
    <clipPath id="clip_ai_fab_icon">
      <rect width="21.9907" height="21.9907" fill="white"/>
    </clipPath>
  </defs>
</svg>
