<svg preserveAspectRatio="none" width="100%" height="100%" overflow="visible" style="display: block;" viewBox="0 0 19.9896 19.9896" fill="none" xmlns="http://www.w3.org/2000/svg">
<g id="Icon" clip-path="url(#clip0_223_503)">
<path id="Vector" d="M10.178 1.6658H9.81156C9.36976 1.6658 8.94606 1.8413 8.63366 2.1537C8.32127 2.4661 8.14576 2.8898 8.14576 3.3316V3.48152C8.14546 3.77364 8.06835 4.06055 7.92216 4.31345C7.77597 4.56636 7.56584 4.77638 7.31286 4.92244L6.95472 5.13066C6.70148 5.27687 6.41422 5.35384 6.12181 5.35384C5.82941 5.35384 5.54215 5.27687 5.28891 5.13066L5.16398 5.06403C4.78173 4.84353 4.32761 4.78371 3.90131 4.89771C3.475 5.0117 3.11134 5.29019 2.89016 5.67205L2.70693 5.98855C2.48643 6.3708 2.42661 6.82492 2.5406 7.25123C2.6546 7.67753 2.93309 8.04119 3.31494 8.26237L3.43988 8.34566C3.69164 8.49101 3.90099 8.69971 4.0471 8.95103C4.19322 9.20236 4.27102 9.48754 4.27278 9.77825V10.203C4.27394 10.4966 4.19752 10.7852 4.05126 11.0397C3.905 11.2942 3.69409 11.5055 3.43988 11.6523L3.31494 11.7272C2.93309 11.9484 2.6546 12.3121 2.5406 12.7384C2.42661 13.1647 2.48643 13.6188 2.70693 14.001L2.89016 14.3176C3.11134 14.6994 3.475 14.9779 3.90131 15.0919C4.32761 15.2059 4.78173 15.1461 5.16398 14.9256L5.28891 14.8589C5.54215 14.7127 5.82941 14.6358 6.12181 14.6358C6.41422 14.6358 6.70148 14.7127 6.95472 14.8589L7.31286 15.0672C7.56584 15.2132 7.77597 15.4232 7.92216 15.6761C8.06835 15.9291 8.14546 16.216 8.14576 16.5081V16.658C8.14576 17.0998 8.32127 17.5235 8.63366 17.8359C8.94606 18.1483 9.36976 18.3238 9.81156 18.3238H10.178C10.6198 18.3238 11.0435 18.1483 11.3559 17.8359C11.6683 17.5235 11.8438 17.0998 11.8438 16.658V16.5081C11.8441 16.216 11.9212 15.9291 12.0674 15.6761C12.2136 15.4232 12.4238 15.2132 12.6767 15.0672L13.0349 14.8589C13.2881 14.7127 13.5754 14.6358 13.8678 14.6358C14.1602 14.6358 14.4475 14.7127 14.7007 14.8589L14.8256 14.9256C15.2079 15.1461 15.662 15.2059 16.0883 15.0919C16.5146 14.9779 16.8783 14.6994 17.0994 14.3176L17.2827 13.9927C17.5032 13.6105 17.563 13.1564 17.449 12.73C17.335 12.3037 17.0565 11.9401 16.6747 11.7189L16.5497 11.6523C16.2955 11.5055 16.0846 11.2942 15.9383 11.0397C15.7921 10.7852 15.7157 10.4966 15.7168 10.203V9.78657C15.7157 9.49304 15.7921 9.20442 15.9383 8.94992C16.0846 8.69542 16.2955 8.48409 16.5497 8.33733L16.6747 8.26237C17.0565 8.04119 17.335 7.67753 17.449 7.25123C17.563 6.82492 17.5032 6.3708 17.2827 5.98855L17.0994 5.67205C16.8783 5.29019 16.5146 5.0117 16.0883 4.89771C15.662 4.78371 15.2079 4.84353 14.8256 5.06403L14.7007 5.13066C14.4475 5.27687 14.1602 5.35384 13.8678 5.35384C13.5754 5.35384 13.2881 5.27687 13.0349 5.13066L12.6767 4.92244C12.4238 4.77638 12.2136 4.56636 12.0674 4.31345C11.9212 4.06055 11.8441 3.77364 11.8438 3.48152V3.3316C11.8438 2.8898 11.6683 2.4661 11.3559 2.1537C11.0435 1.8413 10.6198 1.6658 10.178 1.6658Z" stroke="var(--stroke-0, #6366F1)" stroke-width="1.6658" stroke-linecap="round" stroke-linejoin="round"/>
<path id="Vector_2" d="M9.9948 12.4935C11.3748 12.4935 12.4935 11.3748 12.4935 9.9948C12.4935 8.61481 11.3748 7.4961 9.9948 7.4961C8.61481 7.4961 7.4961 8.61481 7.4961 9.9948C7.4961 11.3748 8.61481 12.4935 9.9948 12.4935Z" stroke="var(--stroke-0, #6366F1)" stroke-width="1.6658" stroke-linecap="round" stroke-linejoin="round"/>
</g>
<defs>
<clipPath id="clip0_223_503">
<rect width="19.9896" height="19.9896" fill="white"/>
</clipPath>
</defs>
</svg>
