<svg preserveAspectRatio="none" width="100%" height="100%" overflow="visible" style="display: block;" viewBox="0 0 17.9994 17.9994" fill="none" xmlns="http://www.w3.org/2000/svg">
<g id="Icon" clip-path="url(#clip0_114_308)">
<path id="Vector" d="M8.9997 5.24983V15.7495" stroke="var(--stroke-0, #6366F1)" stroke-width="1.49995" stroke-linecap="round" stroke-linejoin="round"/>
<path id="Vector_2" d="M2.24992 13.4996C2.05102 13.4996 1.86026 13.4205 1.71961 13.2799C1.57896 13.1392 1.49995 12.9485 1.49995 12.7496V2.9999C1.49995 2.80099 1.57896 2.61023 1.71961 2.46959C1.86026 2.32894 2.05102 2.24992 2.24992 2.24992H5.9998C6.79542 2.24992 7.55846 2.56598 8.12105 3.12857C8.68364 3.69117 8.9997 4.4542 8.9997 5.24982C8.9997 4.4542 9.31576 3.69117 9.87835 3.12857C10.4409 2.56598 11.204 2.24992 11.9996 2.24992H15.7495C15.9484 2.24992 16.1391 2.32894 16.2798 2.46959C16.4204 2.61023 16.4995 2.80099 16.4995 2.9999V12.7496C16.4995 12.9485 16.4204 13.1392 16.2798 13.2799C16.1391 13.4205 15.9484 13.4996 15.7495 13.4996H11.2496C10.6529 13.4996 10.0806 13.7366 9.65869 14.1585C9.23674 14.5805 8.9997 15.1528 8.9997 15.7495C8.9997 15.1528 8.76266 14.5805 8.34071 14.1585C7.91877 13.7366 7.34649 13.4996 6.74977 13.4996H2.24992Z" stroke="var(--stroke-0, #6366F1)" stroke-width="1.49995" stroke-linecap="round" stroke-linejoin="round"/>
</g>
<defs>
<clipPath id="clip0_114_308">
<rect width="17.9994" height="17.9994" fill="white"/>
</clipPath>
</defs>
</svg>
