<svg preserveAspectRatio="none" width="100%" height="100%" overflow="visible" style="display: block;" viewBox="0 0 14.9922 14.9922" fill="none" xmlns="http://www.w3.org/2000/svg">
<g id="Icon" clip-path="url(#clip0_182_592)">
<path id="Vector" d="M6.24675 1.24935V6.24675L8.12077 4.37273L9.9948 6.24675V1.24935" stroke="var(--stroke-0, #6B7280)" stroke-width="1.12441" stroke-linecap="round" stroke-linejoin="round"/>
<path id="Vector_2" d="M2.4987 12.1812V2.81104C2.4987 2.39685 2.66323 1.99963 2.95611 1.70676C3.24898 1.41388 3.6462 1.24935 4.06039 1.24935H11.8688C12.0345 1.24935 12.1934 1.31516 12.3105 1.43231C12.4277 1.54946 12.4935 1.70835 12.4935 1.87403V13.1182C12.4935 13.2838 12.4277 13.4427 12.3105 13.5599C12.1934 13.677 12.0345 13.7428 11.8688 13.7428H4.06039C3.6462 13.7428 3.24898 13.5783 2.95611 13.2854C2.66323 12.9926 2.4987 12.5953 2.4987 12.1812ZM2.4987 12.1812C2.4987 11.767 2.66323 11.3698 2.95611 11.0769C3.24898 10.784 3.6462 10.6195 4.06039 10.6195H12.4935" stroke="var(--stroke-0, #6B7280)" stroke-width="1.12441" stroke-linecap="round" stroke-linejoin="round"/>
</g>
<defs>
<clipPath id="clip0_182_592">
<rect width="14.9922" height="14.9922" fill="white"/>
</clipPath>
</defs>
</svg>
