<svg xmlns="http://www.w3.org/2000/svg" viewBox="0 0 22 22" width="22" height="22" fill="none" overflow="visible">
  <svg x="1.0097" y="1.0075" width="19.9849" height="19.9849" viewBox="0 0 19.9754 19.9753" preserveAspectRatio="xMidYMid meet" overflow="visible">
    <path d="M8.09576 13.1946C8.01396 12.8775 7.84868 12.5882 7.61711 12.3566C7.38555 12.125 7.09617 11.9598 6.77907 11.878L1.1577 10.4284C1.06179 10.4012 0.97738 10.3434 0.917276 10.2639C0.857171 10.1843 0.824651 10.0874 0.824651 9.98767C0.824651 9.88798 0.857171 9.791 0.917276 9.71146C0.97738 9.63192 1.06179 9.57416 1.1577 9.54694L6.77907 8.09647C7.09605 8.01474 7.38536 7.8496 7.61692 7.61821C7.84847 7.38682 8.01381 7.09762 8.09576 6.78069L9.54532 1.15932C9.57226 1.06304 9.62996 0.978211 9.70962 0.917785C9.78928 0.857359 9.88652 0.824651 9.9865 0.824651C10.0865 0.824651 10.1837 0.857359 10.2634 0.917785C10.343 0.978211 10.4007 1.06304 10.4277 1.15932L11.8763 6.78069C11.9581 7.09779 12.1234 7.38718 12.355 7.61874C12.5865 7.8503 12.8759 8.01558 13.193 8.09739L18.8144 9.54602C18.9111 9.57269 18.9963 9.63033 19.0571 9.71011C19.1178 9.78989 19.1507 9.88739 19.1507 9.98767C19.1507 10.0879 19.1178 10.1855 19.0571 10.2652C18.9963 10.345 18.9111 10.4027 18.8144 10.4293L13.193 11.878C12.8759 11.9598 12.5865 12.125 12.355 12.3566C12.1234 12.5882 11.9581 12.8775 11.8763 13.1946L10.4268 18.816C10.3998 18.9123 10.3421 18.9971 10.2625 19.0576C10.1828 19.118 10.0856 19.1507 9.98559 19.1507C9.8856 19.1507 9.78836 19.118 9.70871 19.0576C9.62905 18.9971 9.57134 18.9123 9.5444 18.816L8.09576 13.1946Z" stroke="#6366F1" stroke-width="1.6493" stroke-linecap="round" stroke-linejoin="round"/>
  </svg>
  <svg x="17.5079" y="1.9248" width="1.6493" height="5.3177" viewBox="0 0 1.6493 5.31442" preserveAspectRatio="xMidYMid meet" overflow="visible">
    <path d="M0.824651 0.824651V4.48977" stroke="#6366F1" stroke-width="1.6493" stroke-linecap="round" stroke-linejoin="round"/>
  </svg>
  <svg x="15.6748" y="3.758" width="5.3177" height="1.6493" viewBox="0 0 5.31442 1.6493" preserveAspectRatio="xMidYMid meet" overflow="visible">
    <path d="M4.48977 0.824651H0.824651" stroke="#6366F1" stroke-width="1.6493" stroke-linecap="round" stroke-linejoin="round"/>
  </svg>
  <svg x="2.8428" y="14.7569" width="1.6493" height="3.4861" viewBox="0 0 1.6493 3.48186" preserveAspectRatio="xMidYMid meet" overflow="visible">
    <path d="M0.824651 0.824651V2.65721" stroke="#6366F1" stroke-width="1.6493" stroke-linecap="round" stroke-linejoin="round"/>
  </svg>
  <svg x="1.9253" y="15.6754" width="3.4819" height="1.6493" viewBox="0 0 3.48186 1.6493" preserveAspectRatio="xMidYMid meet" overflow="visible">
    <path d="M2.65721 0.824651H0.824651" stroke="#6366F1" stroke-width="1.6493" stroke-linecap="round" stroke-linejoin="round"/>
  </svg>
</svg>
