<svg preserveAspectRatio="none" width="100%" height="100%" overflow="visible" style="display: block;" viewBox="0 0 19.9749 18.1423" fill="none" xmlns="http://www.w3.org/2000/svg">
<path id="Vector" d="M1.74093 14.5688C1.49792 14.5688 1.26486 14.4723 1.09302 14.3005C0.921187 14.1286 0.824651 13.8956 0.824651 13.6526V1.74093C0.824651 1.49792 0.921187 1.26486 1.09302 1.09302C1.26486 0.921187 1.49792 0.824651 1.74093 0.824651H6.32233C7.29438 0.824651 8.22661 1.2108 8.91395 1.89814C9.6013 2.58548 9.98744 3.51772 9.98744 4.48977C9.98744 3.51772 10.3736 2.58548 11.0609 1.89814C11.7483 1.2108 12.6805 0.824651 13.6526 0.824651H18.234C18.477 0.824651 18.71 0.921187 18.8819 1.09302C19.0537 1.26486 19.1502 1.49792 19.1502 1.74093V13.6526C19.1502 13.8956 19.0537 14.1286 18.8819 14.3005C18.71 14.4723 18.477 14.5688 18.234 14.5688H12.7363C12.0072 14.5688 11.3081 14.8584 10.7926 15.374C10.2771 15.8895 9.98744 16.5886 9.98744 17.3177C9.98744 16.5886 9.69783 15.8895 9.18233 15.374C8.66682 14.8584 7.96764 14.5688 7.23861 14.5688H1.74093Z" stroke="#6366F1" stroke-width="1.6493" stroke-linecap="round" stroke-linejoin="round"/>
</svg>
