<svg preserveAspectRatio="none" width="100%" height="100%" overflow="visible" style="display: block;" viewBox="0 0 20.3419 20.3419" fill="none" xmlns="http://www.w3.org/2000/svg">
<path id="Vector" d="M8.27902 13.3779C8.19721 13.0608 8.03193 12.7714 7.80037 12.5399C7.56881 12.3083 7.27942 12.143 6.96232 12.0612L1.34095 10.6117C1.24505 10.5844 1.16064 10.5267 1.10053 10.4471C1.04043 10.3676 1.00791 10.2706 1.00791 10.1709C1.00791 10.0712 1.04043 9.97426 1.10053 9.89472C1.16064 9.81518 1.24505 9.75742 1.34095 9.7302L6.96232 8.27973C7.27931 8.198 7.56862 8.03286 7.80017 7.80146C8.03173 7.57007 8.19707 7.28088 8.27902 6.96395L9.72857 1.34258C9.75552 1.24629 9.81322 1.16147 9.89288 1.10104C9.97254 1.04062 10.0698 1.00791 10.1698 1.00791C10.2697 1.00791 10.367 1.04062 10.4466 1.10104C10.5263 1.16147 10.584 1.24629 10.6109 1.34258L12.0596 6.96395C12.1414 7.28105 12.3067 7.57043 12.5382 7.80199C12.7698 8.03356 13.0592 8.19884 13.3763 8.28064L18.9977 9.72928C19.0943 9.75594 19.1796 9.81359 19.2403 9.89336C19.3011 9.97314 19.334 10.0706 19.334 10.1709C19.334 10.2712 19.3011 10.3687 19.2403 10.4485C19.1796 10.5283 19.0943 10.5859 18.9977 10.6126L13.3763 12.0612C13.0592 12.143 12.7698 12.3083 12.5382 12.5399C12.3067 12.7714 12.1414 13.0608 12.0596 13.3779L10.61 18.9993C10.5831 19.0956 10.5254 19.1804 10.4457 19.2408C10.3661 19.3012 10.2688 19.3339 10.1688 19.3339C10.0689 19.3339 9.97162 19.3012 9.89196 19.2408C9.8123 19.1804 9.7546 19.0956 9.72765 18.9993L8.27902 13.3779Z" stroke="var(--stroke-0, #6366F1)" stroke-width="2.01581" stroke-linecap="round" stroke-linejoin="round"/>
</svg>
