<svg preserveAspectRatio="none" width="100%" height="100%" overflow="visible" style="display: block;" viewBox="0 0 30 30" fill="none" xmlns="http://www.w3.org/2000/svg">
<g id="Icon">
<path id="Vector (Stroke)" d="M26.2508 15.0004C26.2508 8.78735 21.2134 3.75027 15.0004 3.75004C8.78721 3.75004 3.75004 8.78721 3.75004 15.0004C3.75027 21.2134 8.78735 26.2508 15.0004 26.2508C21.2133 26.2506 26.2506 21.2133 26.2508 15.0004ZM28.7492 15.0004C28.749 22.594 22.594 28.749 15.0004 28.7492C7.40664 28.7492 1.25018 22.5941 1.24996 15.0004C1.24996 7.4065 7.4065 1.24996 15.0004 1.24996C22.5941 1.25018 28.7492 7.40664 28.7492 15.0004Z" fill="var(--fill-0, #CF4AF4)"/>
<path id="Vector (Stroke)_2" d="M13.75 7.5C13.75 6.80964 14.3096 6.24996 15 6.24996C15.6904 6.24996 16.25 6.80964 16.25 7.5V14.2271L20.5585 16.3821C21.1758 16.6908 21.4268 17.4412 21.1184 18.0586C20.8096 18.6761 20.0577 18.9273 19.4403 18.6185L14.4417 16.1185C14.0183 15.9067 13.7501 15.4736 13.75 15.0003V7.5Z" fill="var(--fill-0, #CF4AF4)"/>
</g>
</svg>
