<svg preserveAspectRatio="none" width="100%" height="100%" overflow="visible" style="display: block;" viewBox="0 0 20.3414 18.5088" fill="none" xmlns="http://www.w3.org/2000/svg">
<path id="Vector" d="M1.92419 14.7521C1.68117 14.7521 1.44811 14.6556 1.27628 14.4837C1.10444 14.3119 1.00791 14.0788 1.00791 13.8358V1.92419C1.00791 1.68117 1.10444 1.44811 1.27628 1.27628C1.44811 1.10444 1.68117 1.00791 1.92419 1.00791H6.50558C7.47763 1.00791 8.40987 1.39405 9.09721 2.08139C9.78455 2.76874 10.1707 3.70097 10.1707 4.67302C10.1707 3.70097 10.5568 2.76874 11.2442 2.08139C11.9315 1.39405 12.8638 1.00791 13.8358 1.00791H18.4172C18.6602 1.00791 18.8933 1.10444 19.0651 1.27628C19.237 1.44811 19.3335 1.68117 19.3335 1.92419V13.8358C19.3335 14.0788 19.237 14.3119 19.0651 14.4837C18.8933 14.6556 18.6602 14.7521 18.4172 14.7521H12.9195C12.1905 14.7521 11.4913 15.0417 10.9758 15.5572C10.4603 16.0727 10.1707 16.7719 10.1707 17.5009C10.1707 16.7719 9.88109 16.0727 9.36558 15.5572C8.85008 15.0417 8.1509 14.7521 7.42186 14.7521H1.92419Z" stroke="var(--stroke-0, #6366F1)" stroke-width="2.01581" stroke-linecap="round" stroke-linejoin="round"/>
</svg>
