<svg preserveAspectRatio="none" width="100%" height="100%" overflow="visible" style="display: block;" viewBox="0 0 30 30" fill="none" xmlns="http://www.w3.org/2000/svg">
<g id="Icon">
<path id="Vector (Stroke)" d="M4.99996 18.7505C4.99996 17.0339 5.63252 15.329 6.52507 14.2175C6.85721 13.8039 7.41474 13.6443 7.91509 13.8203C8.41544 13.9964 8.75008 14.47 8.75008 15.0004C8.75018 15.4973 8.94741 15.9738 9.2986 16.3253C9.65023 16.6769 10.1279 16.8754 10.6251 16.8754C11.1223 16.8754 11.5985 16.6768 11.9501 16.3253C12.3016 15.9737 12.5001 15.4975 12.5002 15.0004C12.5002 13.9874 12.266 13.4894 11.8524 12.7103L11.382 11.8085C10.5693 10.1836 10.4607 8.56226 11.0288 6.98416C11.576 5.46418 12.7118 4.09097 14.1767 2.80921L14.3085 2.7083C14.6286 2.49581 15.0328 2.44123 15.4023 2.56669C15.8243 2.71016 16.1383 3.06723 16.2259 3.50422C16.7908 6.32886 18.5005 9.07479 20.7801 10.8987C23.5046 13.0783 25.0006 15.7873 25.0006 18.7505C25.0006 20.0635 24.7414 21.364 24.2389 22.5771C23.7363 23.7903 22.9994 24.8925 22.0708 25.821C21.1423 26.7496 20.0401 27.4866 18.8269 27.9891C17.6138 28.4916 16.3134 28.7492 15.0003 28.7492C13.6873 28.7492 12.3868 28.4915 11.1737 27.9891C9.96058 27.4866 8.85825 26.7494 7.92974 25.821C7.00127 24.8926 6.26425 23.7902 5.7617 22.5771C5.25922 21.364 5.00002 20.0635 4.99996 18.7505ZM15.0003 15.0004C15.0002 16.1602 14.5393 17.2726 13.7193 18.0929C12.8989 18.9134 11.7854 19.3755 10.6251 19.3755C9.47186 19.3755 8.36626 18.9187 7.54724 18.1076C7.51877 18.3192 7.50004 18.5346 7.50004 18.7505C7.50011 19.7352 7.6945 20.7103 8.07135 21.6201C8.44826 22.53 9.00097 23.357 9.69738 24.0534C10.3936 24.7495 11.2195 25.3026 12.1291 25.6794C13.039 26.0564 14.0154 26.2508 15.0003 26.2508C15.985 26.2507 16.9601 26.0562 17.8699 25.6794C18.7797 25.3026 19.6068 24.7498 20.3032 24.0534C20.9996 23.357 21.5523 22.53 21.9292 21.6201C22.3061 20.7103 22.5005 19.7352 22.5005 18.7505C22.5005 16.7139 21.4944 14.6722 19.2192 12.8519C17.0772 11.1382 15.3604 8.75374 14.3915 6.14591C13.9063 6.73813 13.573 7.29684 13.3808 7.83054C13.059 8.72439 13.0914 9.6368 13.6184 10.6903C14.1655 11.7844 15.0003 12.9006 15.0003 15.0004Z" fill="var(--fill-0, #F59E0B)"/>
</g>
</svg>
