<svg preserveAspectRatio="none" width="100%" height="100%" overflow="visible" style="display: block;" viewBox="0 0 23.9919 23.9919" fill="none" xmlns="http://www.w3.org/2000/svg">
<g id="Icon">
<path id="Vector" d="M2.99899 11.996C2.99899 13.7754 3.52665 15.5149 4.51525 16.9944C5.50385 18.4739 6.90898 19.6271 8.55296 20.3081C10.1969 20.989 12.0059 21.1672 13.7512 20.82C15.4964 20.4729 17.0995 19.616 18.3578 18.3578C19.616 17.0995 20.4729 15.4964 20.82 13.7512C21.1672 12.0059 20.989 10.1969 20.3081 8.55296C19.6271 6.90898 18.4739 5.50385 16.9944 4.51525C15.5149 3.52665 13.7754 2.99899 11.996 2.99899C9.48075 3.00845 7.06658 3.98988 5.25822 5.73806L2.99899 7.9973" stroke="var(--stroke-0, #10B981)" stroke-width="1.99933" stroke-linecap="round" stroke-linejoin="round"/>
<path id="Vector_2" d="M2.99899 2.99899V7.9973H7.9973" stroke="var(--stroke-0, #10B981)" stroke-width="1.99933" stroke-linecap="round" stroke-linejoin="round"/>
</g>
</svg>
