<svg preserveAspectRatio="none" width="100%" height="100%" overflow="visible" style="display: block;" viewBox="0 0 7.19919 11.8693" fill="none" xmlns="http://www.w3.org/2000/svg">
<path id="Vector" d="M6.59926 1.0692C6.59912 0.976353 6.57149 0.885625 6.51984 0.808468C6.46819 0.73131 6.39485 0.671181 6.30906 0.635668C6.22327 0.600154 6.12889 0.590849 6.03781 0.608926C5.94674 0.627003 5.86307 0.671652 5.79735 0.737238L3.5416 2.99232C3.45455 3.07989 3.35098 3.14932 3.2369 3.19658C3.12282 3.24383 3.00049 3.26798 2.87701 3.26762H1.26652C1.08973 3.26762 0.920183 3.33785 0.795173 3.46286C0.670162 3.58787 0.599932 3.75742 0.599932 3.93421V7.93376C0.599932 8.11055 0.670162 8.2801 0.795173 8.40511C0.920183 8.53012 1.08973 8.60035 1.26652 8.60035H2.87701C3.00049 8.59999 3.12282 8.62414 3.2369 8.6714C3.35098 8.71865 3.45455 8.78808 3.5416 8.87566L5.79668 11.1314C5.86241 11.1973 5.9462 11.2421 6.03745 11.2603C6.1287 11.2785 6.22329 11.2692 6.30924 11.2336C6.39519 11.1979 6.46864 11.1376 6.52027 11.0602C6.57189 10.9828 6.59939 10.8918 6.59926 10.7988V1.0692Z" stroke="var(--stroke-0, #9CA3AF)" stroke-width="1.19986" stroke-linecap="round" stroke-linejoin="round"/>
</svg>
