<svg preserveAspectRatio="none" width="100%" height="100%" overflow="visible" style="display: block;" viewBox="0 0 19.9896 19.9896" fill="none" xmlns="http://www.w3.org/2000/svg">
<g id="Icon" clip-path="url(#clip0_127_330)">
<path id="Vector" d="M9.1619 3.9163C9.16173 3.80028 9.1272 3.68692 9.06267 3.59051C8.99814 3.4941 8.90649 3.41897 8.7993 3.3746C8.69211 3.33023 8.57418 3.3186 8.46038 3.34119C8.34659 3.36377 8.24204 3.41956 8.15992 3.50151L5.34139 6.31921C5.23261 6.42864 5.10321 6.51539 4.96066 6.57443C4.81812 6.63348 4.66528 6.66365 4.51099 6.6632H2.4987C2.2778 6.6632 2.06595 6.75095 1.90975 6.90715C1.75355 7.06335 1.6658 7.2752 1.6658 7.4961V12.4935C1.6658 12.7144 1.75355 12.9262 1.90975 13.0824C2.06595 13.2386 2.2778 13.3264 2.4987 13.3264H4.51099C4.66528 13.3259 4.81812 13.3561 4.96066 13.4152C5.10321 13.4742 5.23261 13.561 5.34139 13.6704L8.15909 16.4889C8.24121 16.5712 8.34591 16.6273 8.45993 16.65C8.57394 16.6727 8.69213 16.6611 8.79953 16.6166C8.90692 16.5721 8.99869 16.4967 9.0632 16.4C9.12771 16.3032 9.16206 16.1896 9.1619 16.0733V3.9163Z" stroke="var(--stroke-0, #9CA3AF)" stroke-width="1.49922" stroke-linecap="round" stroke-linejoin="round"/>
<path id="Vector_2" d="M13.3264 7.4961C13.867 8.21696 14.1593 9.09373 14.1593 9.9948C14.1593 10.8959 13.867 11.7726 13.3264 12.4935" stroke="var(--stroke-0, #9CA3AF)" stroke-width="1.49922" stroke-linecap="round" stroke-linejoin="round"/>
<path id="Vector_3" d="M16.1283 15.2954C16.8244 14.5993 17.3765 13.7729 17.7532 12.8635C18.13 11.954 18.3239 10.9792 18.3239 9.9948C18.3239 9.01039 18.13 8.03562 17.7532 7.12615C17.3765 6.21667 16.8244 5.3903 16.1283 4.69422" stroke="var(--stroke-0, #9CA3AF)" stroke-width="1.49922" stroke-linecap="round" stroke-linejoin="round"/>
</g>
<defs>
<clipPath id="clip0_127_330">
<rect width="19.9896" height="19.9896" fill="white"/>
</clipPath>
</defs>
</svg>
