<svg preserveAspectRatio="none" width="100%" height="100%" overflow="visible" style="display: block;" viewBox="0 0 21.9907 21.9907" fill="none" xmlns="http://www.w3.org/2000/svg">
<g id="Icon" clip-path="url(#clip0_114_304)">
<path id="Vector" d="M10.9953 6.41395V19.2419" stroke="var(--stroke-0, #6366F1)" stroke-width="1.83256" stroke-linecap="round" stroke-linejoin="round"/>
<path id="Vector_2" d="M2.74884 16.493C2.50583 16.493 2.27277 16.3965 2.10093 16.2247C1.92909 16.0528 1.83256 15.8198 1.83256 15.5767V3.66512C1.83256 3.4221 1.92909 3.18905 2.10093 3.01721C2.27277 2.84537 2.50583 2.74884 2.74884 2.74884H7.33023C8.30228 2.74884 9.23452 3.13498 9.92186 3.82233C10.6092 4.50967 10.9954 5.4419 10.9954 6.41395C10.9954 5.4419 11.3815 4.50967 12.0688 3.82233C12.7562 3.13498 13.6884 2.74884 14.6605 2.74884H19.2419C19.4849 2.74884 19.7179 2.84537 19.8898 3.01721C20.0616 3.18905 20.1581 3.4221 20.1581 3.66512V15.5767C20.1581 15.8198 20.0616 16.0528 19.8898 16.2247C19.7179 16.3965 19.4849 16.493 19.2419 16.493H13.7442C13.0152 16.493 12.316 16.7826 11.8005 17.2981C11.285 17.8136 10.9954 18.5128 10.9954 19.2419C10.9954 18.5128 10.7057 17.8136 10.1902 17.2981C9.67473 16.7826 8.97555 16.493 8.24651 16.493H2.74884Z" stroke="var(--stroke-0, #6366F1)" stroke-width="1.83256" stroke-linecap="round" stroke-linejoin="round"/>
</g>
<defs>
<clipPath id="clip0_114_304">
<rect width="21.9907" height="21.9907" fill="white"/>
</clipPath>
</defs>
</svg>
