<svg preserveAspectRatio="none" width="100%" height="100%" overflow="visible" style="display: block;" viewBox="0 0 31.9964 31.9964" fill="none" xmlns="http://www.w3.org/2000/svg">
<g id="Icon">
<path id="Vector" d="M15.3649 3.05966C15.4234 2.94162 15.5136 2.84226 15.6255 2.77279C15.7374 2.70332 15.8665 2.66651 15.9982 2.66651C16.1299 2.66651 16.259 2.70332 16.3709 2.77279C16.4828 2.84226 16.573 2.94162 16.6315 3.05966L19.7111 9.29762C19.914 9.7082 20.2135 10.0634 20.5839 10.3328C20.9542 10.6021 21.3844 10.7776 21.8375 10.8441L28.7248 11.852C28.8553 11.8709 28.9779 11.926 29.0787 12.0109C29.1796 12.0959 29.2546 12.2074 29.2954 12.3328C29.3362 12.4582 29.3411 12.5925 29.3095 12.7205C29.2779 12.8485 29.2111 12.9651 29.1167 13.0572L24.136 17.9073C23.8075 18.2274 23.5617 18.6225 23.4198 19.0587C23.2779 19.4948 23.2441 19.9589 23.3214 20.411L24.4972 27.2636C24.5203 27.394 24.5062 27.5283 24.4566 27.6511C24.407 27.7739 24.3238 27.8803 24.2167 27.9582C24.1095 28.036 23.9826 28.0822 23.8505 28.0914C23.7183 28.1006 23.5863 28.0724 23.4694 28.0102L17.3127 24.7732C16.9071 24.5602 16.4557 24.4489 15.9975 24.4489C15.5393 24.4489 15.088 24.5602 14.6823 24.7732L8.52704 28.0102C8.41016 28.0721 8.27827 28.0999 8.14635 28.0905C8.01444 28.0811 7.8878 28.0349 7.78085 27.9571C7.6739 27.8794 7.59092 27.7731 7.54136 27.6505C7.4918 27.5279 7.47764 27.3939 7.50049 27.2636L8.67502 20.4124C8.75261 19.9601 8.719 19.4957 8.57709 19.0593C8.43517 18.6228 8.18922 18.2275 7.86045 17.9073L2.87968 13.0585C2.78448 12.9666 2.71702 12.8497 2.68498 12.7213C2.65294 12.5929 2.65762 12.4581 2.69847 12.3322C2.73932 12.2063 2.81471 12.0944 2.91604 12.0093C3.01738 11.9242 3.14059 11.8692 3.27163 11.8507L10.1575 10.8441C10.6111 10.7781 11.0419 10.6029 11.4128 10.3335C11.7837 10.0641 12.0836 9.7086 12.2866 9.29762L15.3649 3.05966Z" stroke="var(--stroke-0, #10B981)" stroke-width="2.39973" stroke-linecap="round" stroke-linejoin="round"/>
</g>
</svg>
