<svg preserveAspectRatio="none" width="100%" height="100%" overflow="visible" style="display: block;" viewBox="0 0 29.9953 29.9953" fill="none" xmlns="http://www.w3.org/2000/svg">
<g id="Icon">
<path id="Vector" d="M24.9961 16.2475C24.9961 22.4965 20.6218 25.621 15.4226 27.4332C15.1503 27.5255 14.8546 27.521 14.5852 27.4207C9.37353 25.621 4.99922 22.4965 4.99922 16.2475V7.49883C4.99922 7.16736 5.13089 6.84946 5.36528 6.61508C5.59966 6.3807 5.91755 6.24902 6.24902 6.24902C8.74863 6.24902 11.8731 4.74926 14.0478 2.84955C14.3126 2.62334 14.6494 2.49905 14.9977 2.49905C15.3459 2.49905 15.6827 2.62334 15.9475 2.84955C18.1347 4.76175 21.2467 6.24902 23.7463 6.24902C24.0777 6.24902 24.3956 6.3807 24.63 6.61508C24.8644 6.84946 24.9961 7.16736 24.9961 7.49883V16.2475Z" stroke="var(--stroke-0, #D97706)" stroke-width="2.24965" stroke-linecap="round" stroke-linejoin="round"/>
</g>
</svg>
