<svg preserveAspectRatio="none" width="100%" height="100%" overflow="visible" style="display: block;" viewBox="0 0 29.9953 29.9953" fill="none" xmlns="http://www.w3.org/2000/svg">
<g id="Icon">
<path id="Vector" d="M14.4502 4.08186C14.5042 3.98388 14.5834 3.90218 14.6797 3.84528C14.776 3.78837 14.8858 3.75836 14.9977 3.75836C15.1095 3.75836 15.2193 3.78837 15.3156 3.84528C15.4119 3.90218 15.4911 3.98388 15.5451 4.08186L19.2345 11.0858C19.3225 11.2479 19.4453 11.3886 19.5941 11.4977C19.7429 11.6068 19.914 11.6816 20.0951 11.7167C20.2762 11.7519 20.4629 11.7465 20.6417 11.7009C20.8205 11.6553 20.987 11.5707 21.1292 11.4532L26.4746 6.87392C26.5772 6.79046 26.7037 6.74172 26.8357 6.7347C26.9678 6.72768 27.0987 6.76275 27.2096 6.83486C27.3205 6.90698 27.4056 7.01241 27.4528 7.136C27.4999 7.25958 27.5066 7.39493 27.4719 7.52257L23.93 20.3281C23.8577 20.5901 23.7019 20.8214 23.4863 20.987C23.2707 21.1525 23.007 21.2433 22.7352 21.2454H7.26136C6.98932 21.2435 6.72533 21.1529 6.50947 20.9874C6.29361 20.8218 6.13766 20.5903 6.0653 20.3281L2.5246 7.52382C2.48992 7.39618 2.49664 7.26083 2.54378 7.13724C2.59092 7.01366 2.67606 6.90823 2.78694 6.83611C2.89782 6.764 3.02872 6.72893 3.16081 6.73595C3.29289 6.74296 3.41934 6.79171 3.52195 6.87517L8.86611 11.4545C9.00834 11.572 9.17482 11.6566 9.35361 11.7021C9.53241 11.7477 9.71907 11.7531 9.9002 11.718C10.0813 11.6829 10.2524 11.6081 10.4012 11.499C10.55 11.3899 10.6728 11.2492 10.7608 11.087L14.4502 4.08186Z" stroke="var(--stroke-0, #9333EA)" stroke-width="2.24965" stroke-linecap="round" stroke-linejoin="round"/>
<path id="Vector_2" d="M6.24902 26.2459H23.7463" stroke="var(--stroke-0, #9333EA)" stroke-width="2.24965" stroke-linecap="round" stroke-linejoin="round"/>
</g>
</svg>
