<svg preserveAspectRatio="none" width="100%" height="100%" overflow="visible" style="display: block;" viewBox="0 0 29.9953 29.9953" fill="none" xmlns="http://www.w3.org/2000/svg">
<g id="Icon">
<path id="Vector" d="M4.99922 17.4973C4.76271 17.4981 4.53083 17.4317 4.33051 17.306C4.1302 17.1803 3.96967 17.0003 3.86758 16.7869C3.76549 16.5736 3.72603 16.3357 3.75379 16.1008C3.78154 15.8659 3.87537 15.6437 4.02437 15.4601L16.3974 2.71208C16.4902 2.60494 16.6167 2.53255 16.7561 2.50677C16.8955 2.481 17.0395 2.50337 17.1645 2.57023C17.2895 2.63708 17.388 2.74444 17.4439 2.87468C17.4999 3.00493 17.5099 3.15032 17.4723 3.28699L15.0726 10.8108C15.0019 11.0002 14.9781 11.2039 15.0034 11.4045C15.0287 11.605 15.1022 11.7965 15.2177 11.9624C15.3332 12.1283 15.4873 12.2637 15.6666 12.357C15.846 12.4503 16.0453 12.4987 16.2475 12.498H24.9961C25.2326 12.4972 25.4645 12.5636 25.6648 12.6893C25.8651 12.815 26.0256 12.995 26.1277 13.2084C26.2298 13.4217 26.2693 13.6596 26.2415 13.8945C26.2138 14.1294 26.1199 14.3516 25.9709 14.5352L13.5979 27.2832C13.5051 27.3904 13.3786 27.4627 13.2392 27.4885C13.0998 27.5143 12.9558 27.4919 12.8308 27.4251C12.7058 27.3582 12.6073 27.2509 12.5514 27.1206C12.4954 26.9904 12.4854 26.845 12.523 26.7083L14.9227 19.1845C14.9934 18.9951 15.0172 18.7914 14.9919 18.5908C14.9666 18.3903 14.8931 18.1988 14.7776 18.0329C14.6621 17.867 14.508 17.7316 14.3287 17.6383C14.1493 17.545 13.95 17.4966 13.7478 17.4973H4.99922Z" stroke="var(--stroke-0, #6366F1)" stroke-width="2.24965" stroke-linecap="round" stroke-linejoin="round"/>
</g>
</svg>
