<svg preserveAspectRatio="none" width="100%" height="100%" overflow="visible" style="display: block;" viewBox="0 0 31.9964 31.9964" fill="none" xmlns="http://www.w3.org/2000/svg">
<g id="Icon">
<path id="Vector" d="M15.9982 3.99955C14.4071 5.59067 13.5132 7.74869 13.5132 9.99888C13.5132 12.2491 14.4071 14.4071 15.9982 15.9982C17.5893 17.5893 19.7473 18.4832 21.9975 18.4832C24.2477 18.4832 26.4057 17.5893 27.9968 15.9982C27.9968 18.3713 27.2931 20.6911 25.9747 22.6643C24.6563 24.6375 22.7824 26.1754 20.5899 27.0835C18.3974 27.9917 15.9849 28.2293 13.6574 27.7663C11.3299 27.3033 9.19191 26.1606 7.51387 24.4825C5.83583 22.8045 4.69307 20.6665 4.2301 18.339C3.76713 16.0115 4.00474 13.599 4.91289 11.4065C5.82104 9.21405 7.35894 7.34012 9.33211 6.02169C11.3053 4.70326 13.6251 3.99955 15.9982 3.99955Z" stroke="var(--stroke-0, #9333EA)" stroke-width="2.39973" stroke-linecap="round" stroke-linejoin="round"/>
</g>
</svg>
