<svg preserveAspectRatio="none" width="100%" height="100%" overflow="visible" style="display: block;" viewBox="0 0 31.9964 31.9964" fill="none" xmlns="http://www.w3.org/2000/svg">
<g id="Icon">
<path id="Vector" d="M5.99933 21.9975C3.99955 23.6773 3.33296 28.6634 3.33296 28.6634C3.33296 28.6634 8.31906 27.9969 9.99888 25.9971C10.9454 24.8772 10.9321 23.1574 9.87889 22.1175C9.36069 21.6229 8.67808 21.3371 7.96207 21.315C7.24606 21.2928 6.5471 21.5359 5.99933 21.9975Z" stroke="var(--stroke-0, #6366F1)" stroke-width="2.39973" stroke-linecap="round" stroke-linejoin="round"/>
<path id="Vector_2" d="M15.9982 19.9977L11.9987 15.9982C12.7081 14.1576 13.6014 12.3934 14.665 10.7321C16.2184 8.24839 18.3814 6.20337 20.9483 4.79158C23.5152 3.3798 26.4006 2.6482 29.33 2.66637C29.33 6.29263 28.2902 12.6652 21.3309 17.3314C19.647 18.3962 17.8605 19.2895 15.9982 19.9977Z" stroke="var(--stroke-0, #6366F1)" stroke-width="2.39973" stroke-linecap="round" stroke-linejoin="round"/>
<path id="Vector_3" d="M11.9987 15.9982H5.33273C5.33273 15.9982 6.06598 11.9587 7.9991 10.6655C10.1589 9.22563 14.665 10.6655 14.665 10.6655" stroke="var(--stroke-0, #6366F1)" stroke-width="2.39973" stroke-linecap="round" stroke-linejoin="round"/>
<path id="Vector_4" d="M15.9982 19.9977V26.6637C15.9982 26.6637 20.0377 25.9304 21.3309 23.9973C22.7708 21.8375 21.3309 17.3314 21.3309 17.3314" stroke="var(--stroke-0, #6366F1)" stroke-width="2.39973" stroke-linecap="round" stroke-linejoin="round"/>
</g>
</svg>
